<svg xmlns="http://www.w3.org/2000/svg" viewBox="0 0 128 144" width="128" height="144" data-anchor="64.0 136" data-world="0.23">
  <!-- Niedźwiedź-kusznik: ciężka kusza z bełtami-runami, kołczan z futra. -->
  <g stroke="#1a120c" stroke-width="2" stroke-linejoin="round" stroke-linecap="round">
    <rect x="28" y="62" width="14" height="30" rx="3" fill="#8a7a64"/>
  </g>
  <path d="M31 62 L29 52 M36 61 L36 51 M40 62 L42 52" stroke="#767d86" stroke-width="2"/>
  <g stroke="#1a120c" stroke-width="3" stroke-linejoin="round" stroke-linecap="round">
    <path d="M52 76 C46 84 56 90 66 88 L68 84 C62 84 60 82 60 80 Z" fill="#553519"/>
  </g>
  <g stroke="#1a120c" stroke-width="3" stroke-linejoin="round" stroke-linecap="round">
    <path d="M44 108 L38 126 L36 136 L60 136 L60 122 L62 110 Z" fill="#553519"/>
    <path d="M70 110 L68 126 L66 136 L94 136 L90 122 L88 110 Z" fill="#7a4f2c"/>
  </g>
  <path d="M36 136 L60 136 M66 136 L94 136" stroke="#1a120c" stroke-width="3"/>
  <path d="M40 133 L41 136 M46 133 L46 136 M72 133 L73 136 M80 133 L80 136" stroke="#e8dcc0" stroke-width="1.5"/>
  <g stroke="#1a120c" stroke-width="3" stroke-linejoin="round" stroke-linecap="round">
    <path d="M34 92 C32 70 48 58 68 58 C88 58 100 70 100 92 C100 110 88 120 68 120 C48 120 34 110 34 92 Z" fill="#7a4f2c"/>
  </g>
  <path d="M36 96 C40 110 52 120 68 120 C54 114 44 104 42 88 Z" fill="#553519" opacity="0.6"/>
  <g stroke="#1a120c" stroke-width="3" stroke-linejoin="round" stroke-linecap="round">
    <path d="M44 74 C56 66 82 66 94 74 C98 90 94 108 82 114 L58 114 C46 108 40 90 44 74 Z" fill="#4a4e55"/>
  </g>
  <path d="M44 84 L95 84 L94 94 L44 94 Z" fill="#c800c8"/>
  <path d="M44 84 L95 84" stroke="#ff00ff" stroke-width="1.2"/>
  <path d="M60 102 L68 108 L76 102" stroke="#b070ff" stroke-width="2" fill="none"/>
  <path d="M48 72 C60 66 80 66 90 72" stroke="#767d86" stroke-width="1.5" fill="none"/>
    <circle cx="50" cy="100" r="1.2" fill="#8b939e"/>
    <circle cx="88" cy="100" r="1.2" fill="#8b939e"/>
    <circle cx="56" cy="110" r="1.2" fill="#8b939e"/>
    <circle cx="82" cy="110" r="1.2" fill="#8b939e"/>
  <g stroke="#1a120c" stroke-width="3" stroke-linejoin="round" stroke-linecap="round">
    <path d="M82 68 C94 70 100 78 100 86 L92 90 C88 84 84 80 78 80 Z" fill="#7a4f2c"/>
  </g>
  <g stroke="#1a120c" stroke-width="2.5" stroke-linejoin="round" stroke-linecap="round">
    <rect x="62" y="80" width="54" height="10" rx="2" fill="#6a4a2e"/>
    <path d="M110 64 C120 72 120 98 110 106" fill="none" stroke-width="5"/>
  </g>
  <path d="M110 64 C120 72 120 98 110 106" fill="none" stroke="#767d86" stroke-width="2.5"/>
  <path d="M110 64 L80 85 L110 106" stroke="#e8dcc0" stroke-width="1.2" fill="none"/>
  <path d="M86 85 L126 85" stroke="#1a120c" stroke-width="3"/><path d="M120 81 L128 85 L120 89 Z" fill="#b070ff" stroke="#1a120c" stroke-width="1"/>
  <g stroke="#1a120c" stroke-width="2.2" stroke-linejoin="round" stroke-linecap="round">
    <circle cx="96" cy="88" r="6" fill="#553519"/>
  </g>
  <g stroke="#1a120c" stroke-width="3" stroke-linejoin="round" stroke-linecap="round">
    <circle cx="56" cy="30" r="8" fill="#553519"/>
    <circle cx="82" cy="26" r="8" fill="#7a4f2c"/>
    <path d="M46 50 C46 34 60 26 76 26 C92 26 102 36 102 50 C102 62 90 70 74 70 C58 70 46 62 46 50 Z" fill="#7a4f2c"/>
    <path d="M90 46 C100 44 110 48 112 54 C113 62 104 66 96 65 C90 64 86 58 88 52 Z" fill="#c09a70"/>
  </g>
  <circle cx="82" cy="26" r="3.5" fill="#c08a70"/>
  <path d="M106 50 C110 49 113 51 112 54 C110 56 106 55 105 52 Z" fill="#1e1410"/>
  <path d="M100 59 C104 62 108 62 111 59" fill="none" stroke="#1e1410" stroke-width="1.4"/>
  <circle cx="88" cy="44" r="2.6" fill="#1e1410"/><circle cx="88.8" cy="43.2" r="0.9" fill="#ffffff"/>
  <path d="M82 38 C86 36 92 37 94 40" stroke="#553519" stroke-width="2.4" fill="none"/>
  <path d="M48 54 C52 64 62 70 74 70 C64 66 56 60 52 50 Z" fill="#553519" opacity="0.7"/>
  <path d="M60 32 C66 29 76 28 84 30" fill="none" stroke="#9a6a40" stroke-width="2"/>  <g stroke="#1a120c" stroke-width="2.5" stroke-linejoin="round" stroke-linecap="round">
    <path d="M48 42 C48 28 62 22 76 22 C90 22 100 30 101 40 C84 35 64 35 48 42 Z" fill="#4a4e55"/>
    <path d="M70 22 L72 8 L78 22 Z" fill="#767d86"/>
  </g>
  <path d="M60 26 L60 38 M72 24 L72 36" stroke="#2c2f34" stroke-width="1.5"/>
  <path d="M84 26 L96 36" stroke="#b070ff" stroke-width="2"/>
</svg>
