<svg xmlns="http://www.w3.org/2000/svg" viewBox="0 0 128 144" width="128" height="144" data-anchor="64 136" data-world="0.27" data-scale="0.85">
  <!-- Pani Przypływu (fantasy): szata z falami, korona z koralowca, kostur z kulą wody. -->
  <g stroke="#1a120c" stroke-width="3" stroke-linejoin="round" stroke-linecap="round">
    <path d="M46 100 C30 102 16 112 6 128 C4 134 10 136 16 132 C26 122 36 116 48 112 Z" fill="#54361f"/>
  </g>
  <path d="M40 106 C28 110 18 118 10 128" stroke="#9c6e4c" stroke-width="1.8" fill="none"/>
  <g stroke="#1a120c" stroke-width="3" stroke-linejoin="round" stroke-linecap="round">
    <path d="M44 72 C38 96 36 120 32 136 L96 136 C94 118 92 96 88 72 C80 64 52 64 44 72 Z" fill="#1f5a66"/>
    <path d="M60 70 L62 136 L70 136 L74 70 Z" fill="#2a7480"/>
  </g>
  <path d="M34 128 C42 122 48 132 56 126 C64 120 70 132 78 126 C86 120 90 130 96 126" stroke="#3fd0c0" stroke-width="3" fill="none"/>
  <path d="M46 80 L88 80 L88 86 L46 86 Z" fill="#c800c8"/>
  <path d="M50 92 C56 98 64 98 70 94" stroke="#e8cfae" stroke-width="2.5" fill="none"/>
  <g stroke="#1a120c" stroke-width="3" stroke-linejoin="round" stroke-linecap="round">
    <path d="M56 32 C54 26 60 22 64 26 C66 30 64 34 60 35 Z" fill="#54361f"/>
    <path d="M46 52 C46 36 60 28 76 28 C92 28 104 38 104 50 C104 62 92 70 76 70 C60 70 46 64 46 52 Z" fill="#7a5236"/>
    <path d="M84 44 C96 42 110 46 114 52 C116 60 108 66 96 66 C88 66 82 60 82 54 Z" fill="#d9b48a"/>
  </g>
  <path d="M110 48 C114 48 116 50 115 53 C113 55 109 54 108 51 Z" fill="#2a1a12"/>
  <path d="M104 58 C107 61 111 61 114 58" fill="none" stroke="#2a1a12" stroke-width="1.4"/>
  <path d="M100 54 L124 49 M100 57 L125 57 M99 60 L122 64" stroke="#e8dcc8" stroke-width="1"/>
  <ellipse cx="90" cy="45" rx="3.8" ry="4" fill="#2a1a12"/><circle cx="91" cy="43.6" r="1.3" fill="#ffffff"/>
  <path d="M84 39 C88 37 94 37 97 40" stroke="#54361f" stroke-width="2" fill="none"/>
  <path d="M48 56 C52 64 62 70 76 70 C66 66 56 60 52 52 Z" fill="#54361f" opacity="0.7"/>
  <path d="M60 32 C68 29 78 29 86 31" fill="none" stroke="#9c6e4c" stroke-width="2"/>
  <path d="M54 30 L50 16 L58 24 L60 10 L66 22 L70 12 L74 26" fill="#e87060" stroke="#1a120c" stroke-width="2" stroke-linejoin="round"/>
  <path d="M52 32 C60 26 72 24 82 28" stroke="#e8cfae" stroke-width="3" fill="none"/>
  <g stroke="#1a120c" stroke-width="3" stroke-linejoin="round" stroke-linecap="round">
    <path d="M104 136 L106 34" stroke-width="7"/>
  </g>
  <path d="M104 136 L106 34" stroke="#b8a070" stroke-width="3.5"/>
  <circle cx="106" cy="24" r="12" fill="#3fd0c0" stroke="#1a120c" stroke-width="2.5"/>
  <circle cx="102" cy="20" r="4" fill="#c8fff6"/><circle cx="106" cy="24" r="20" fill="#3fd0c0" opacity="0.18"/>
  <path d="M96 30 C92 40 100 44 106 40 C112 36 118 42 114 50" stroke="#3fd0c0" stroke-width="2" fill="none" opacity="0.8"/>
  <g stroke="#1a120c" stroke-width="3" stroke-linejoin="round" stroke-linecap="round">
    <path d="M80 70 C92 70 100 72 104 78 L100 86 C92 82 86 80 76 80 Z" fill="#1f5a66"/>
  </g>  <g stroke="#1a120c" stroke-width="2.2" stroke-linejoin="round" stroke-linecap="round">
    <circle cx="104" cy="82" r="5" fill="#54361f"/>
  </g>
</svg>
