<svg xmlns="http://www.w3.org/2000/svg" viewBox="0 0 128 144" width="128" height="144" data-anchor="64.0 136" data-world="0.21">
  <!-- Gibon-strzelec: karabin rezonansowy (cyjanowe pierścienie), gogle celownicze. -->
  <g stroke="#1a120c" stroke-width="3" stroke-linejoin="round" stroke-linecap="round">
    <path d="M56 66 C44 70 32 76 20 74 L26 80 L18 84 L30 86 L24 92 C38 90 50 82 60 74 Z" fill="#6e2a22"/>
  </g>
  <g stroke="#1a120c" stroke-width="3" stroke-linejoin="round" stroke-linecap="round">
    <rect x="38" y="60" width="16" height="22" rx="3" fill="#2b2e33"/>
  </g>
  <path d="M42 60 L40 48" stroke="#1a120c" stroke-width="2.5"/><circle cx="40" cy="47" r="2.3" fill="#5ff3ff" stroke="#1a120c" stroke-width="1"/>
  <g stroke="#1a120c" stroke-width="3" stroke-linejoin="round" stroke-linecap="round">
    <path d="M60 106 L56 122 L54 134 L66 134 L66 122 L68 108 Z" fill="#8f7a5c"/>
    <path d="M70 106 L70 122 L70 134 L84 134 L82 122 L80 106 Z" fill="#c9b08a"/>
    <path d="M52 130 L52 136 L68 136 L67 130 Z M68 130 L68 136 L86 136 L84 130 Z" fill="#2a221c"/>
  </g>
  <g stroke="#1a120c" stroke-width="3" stroke-linejoin="round" stroke-linecap="round">
    <path d="M50 92 C48 78 56 66 68 64 C80 64 88 74 88 90 C88 104 80 114 68 114 C58 114 50 106 50 92 Z" fill="#c9b08a"/>
  </g>
  <g stroke="#1a120c" stroke-width="3" stroke-linejoin="round" stroke-linecap="round">
    <path d="M54 76 C62 68 78 68 85 76 C88 88 86 100 80 108 L58 108 C54 100 52 88 54 76 Z" fill="#2f4a4f"/>
  </g>
  <path d="M65 70 L72 70 L72 108 L65 108 Z" fill="#c800c8"/>
  <path d="M65 70 L65 108" stroke="#ff00ff" stroke-width="1"/>
  <path d="M54 77 C62 69 78 69 85 77" fill="none" stroke="#b8893a" stroke-width="2"/>
  <path d="M58 107 L80 107" stroke="#b8893a" stroke-width="2"/>
  <path d="M58 94 L62 100 M60 84 L64 88" stroke="#1d2e31" stroke-width="1.5"/>
  <g stroke="#1a120c" stroke-width="3" stroke-linejoin="round" stroke-linecap="round">
    <path d="M58 70 C50 80 50 90 60 94 L94 88 L94 82 L62 86 C60 82 62 78 66 76 Z" fill="#8f7a5c"/>
  </g>
  <g stroke="#1a120c" stroke-width="2.5" stroke-linejoin="round" stroke-linecap="round">
    <path d="M36 80 L50 76 L52 90 L40 94 Z" fill="#3b4a4e"/>
    <rect x="48" y="78" width="56" height="11" rx="3" fill="#2b2e33"/>
    <rect x="102" y="80" width="18" height="7" rx="2" fill="#3b4a4e"/>
    <circle cx="66" cy="76" r="6" fill="#3b4a4e"/>
  </g>
  <path d="M84 77 L84 90 M90 77 L90 90 M96 77 L96 90" stroke="#5ff3ff" stroke-width="2.2"/>
  <circle cx="66" cy="76" r="3" fill="#5ff3ff"/>
  <rect x="118" y="81" width="3" height="5" fill="#e8feff"/>
  <path d="M52 80 L100 80" stroke="#6f8a90" stroke-width="1.2"/>
  <g stroke="#1a120c" stroke-width="3" stroke-linejoin="round" stroke-linecap="round">
    <path d="M74 68 C86 70 92 78 92 86 L84 90 C84 82 80 78 70 78 Z" fill="#c9b08a"/>
    <circle cx="90" cy="88" r="5.5" fill="#2a221c"/>
  </g>
  <g stroke="#1a120c" stroke-width="3" stroke-linejoin="round" stroke-linecap="round">
    <path d="M44 44 C42 28 54 18 68 18 C84 18 94 28 94 44 C94 58 84 68 68 68 C54 68 44 58 44 44 Z" fill="#d9c29c"/>
  </g>
  <path d="M46 36 L42 32 L48 30 L46 24 L54 26 L54 20 L60 23 L64 17 L67 22" fill="#d9c29c" stroke="#1a120c" stroke-width="2" stroke-linejoin="round"/>
  <path d="M46 48 C48 60 58 68 70 68 C60 64 52 56 50 44 Z" fill="#8f7a5c" opacity="0.7"/>
  <path d="M50 42 C46 40 44 46 46 50 C48 52 51 51 52 48 L50 46 Z" fill="#8f7a5c" stroke="#1a120c" stroke-width="1.5"/>
  <ellipse cx="78" cy="45" rx="15" ry="16.5" fill="#f0e6d2"/>
  <ellipse cx="80" cy="47" rx="11.5" ry="13" fill="#2a221e"/>
  <ellipse cx="85" cy="54" rx="7.5" ry="5.5" fill="#3d332d"/>
  <path d="M69 38 C74 35 82 35 90 37" stroke="#f0e6d2" stroke-width="3" fill="none" stroke-linecap="round"/>
  <path d="M64 38 L94 38 L94 46 L66 48 Z" fill="#3b4a4e" stroke="#1a120c" stroke-width="1.8" stroke-linejoin="round"/>
  <path d="M70 40.5 L92 40.5 L92 44 L71 45 Z" fill="#5ff3ff"/>
  <path d="M72 41.5 L84 41.5" stroke="#e8feff" stroke-width="1"/>
  <path d="M72 51 L78 58" stroke="#8a5a50" stroke-width="1.8" stroke-linecap="round"/>
  <path d="M88 50.5 L89.5 51.5 M85.5 51 L86.5 51.8" stroke="#120c08" stroke-width="1.3" stroke-linecap="round"/>
  <path d="M80 57.5 C84 59 88 58.5 91 56" fill="none" stroke="#0c0806" stroke-width="1.5"/>
  <path d="M58 24 C62 22 68 21 72 22" fill="none" stroke="#f0e2c4" stroke-width="2" stroke-linecap="round"/>
</svg>
