<svg xmlns="http://www.w3.org/2000/svg" viewBox="0 0 128 160" width="128" height="160" data-anchor="64 152" data-world="0.21">
  <!-- Zając-piechur: ceramiczne ostrze z żyłą energii, plecak odrzutowy, gogle lotnicze. -->
  <g transform="translate(0 16)">
  <g stroke="#1a120c" stroke-width="2.2" stroke-linejoin="round" stroke-linecap="round">
    <rect x="34" y="70" width="16" height="30" rx="5" fill="#a9b4bc"/>
    <path d="M36 100 L32 110 L42 110 L42 100 Z M43 100 L43 110 L52 110 L48 100 Z" fill="#3b3f45"/>
  </g>
  <path d="M37 112 L34 120 M47 112 L48 120" stroke="#8cdcff" stroke-width="2.5" stroke-linecap="round"/>
  <circle cx="42" cy="80" r="3" fill="#8cdcff" stroke="#1a120c" stroke-width="1"/>
  <g stroke="#1a120c" stroke-width="2.5" stroke-linejoin="round" stroke-linecap="round">
    <path d="M40 98 C30 94 24 100 26 108 C30 114 40 112 44 106 Z" fill="#ffffff"/>
  </g>
  <g stroke="#1a120c" stroke-width="3" stroke-linejoin="round" stroke-linecap="round">
    <path d="M58 78 C50 86 52 94 60 96 L66 92 C60 90 62 84 64 80 Z" fill="#c4bcae"/>
  </g>
  <g stroke="#1a120c" stroke-width="3" stroke-linejoin="round" stroke-linecap="round">
    <path d="M50 104 C42 110 40 122 46 128 L44 134 L64 136 L62 124 C62 116 60 108 56 104 Z" fill="#c4bcae"/>
    <path d="M70 106 C66 116 66 126 70 130 L68 136 L94 138 L92 130 C86 128 84 118 82 106 Z" fill="#eeeae2"/>
  </g>
  <path d="M44 132 L64 134 M68 134 L94 136" stroke="#a9b4bc" stroke-width="3"/>
  <g stroke="#1a120c" stroke-width="3" stroke-linejoin="round" stroke-linecap="round">
    <path d="M44 96 C42 78 54 66 70 66 C86 66 94 78 94 94 C94 110 84 118 70 118 C54 118 44 110 44 96 Z" fill="#eeeae2"/>
  </g>
  <path d="M46 100 C50 112 60 118 70 118 C60 112 52 104 50 92 Z" fill="#c4bcae" opacity="0.6"/>
  <g stroke="#1a120c" stroke-width="3" stroke-linejoin="round" stroke-linecap="round">
    <path d="M52 80 C62 74 80 74 90 80 C94 94 90 110 80 114 L60 114 C50 108 48 94 52 80 Z" fill="#dfe6ea"/>
  </g>
  <path d="M52 88 L91 88 L90 96 L51 96 Z" fill="#c800c8"/>
  <path d="M52 88 L91 88" stroke="#ff00ff" stroke-width="1.2"/>
  <path d="M58 104 C66 108 76 108 84 104" stroke="#a9b4bc" stroke-width="2" fill="none"/>
  <circle cx="71" cy="102" r="3" fill="#8cdcff" stroke="#1a120c" stroke-width="1.2"/>
  <g stroke="#1a120c" stroke-width="3" stroke-linejoin="round" stroke-linecap="round">
    <path d="M78 72 C90 76 94 86 90 94 L82 94 C84 86 80 82 74 80 Z" fill="#eeeae2"/>
  </g>
  <g stroke="#1a120c" stroke-width="2.5" stroke-linejoin="round" stroke-linecap="round">
    <path d="M86 96 L96 88 L100 92 L92 100 Z" fill="#3b3f45"/>
    <path d="M96 90 L124 50 L128 54 L100 94 Z" fill="#dfe6ea"/>
  </g>
  <path d="M98 90 L124 53" stroke="#8cdcff" stroke-width="1.8"/>
  <path d="M100 94 L126 58" stroke="#a9b4bc" stroke-width="1"/>
  <g stroke="#1a120c" stroke-width="2.2" stroke-linejoin="round" stroke-linecap="round">
    <circle cx="88" cy="96" r="5.5" fill="#ffffff"/>
  </g>
  <g stroke="#1a120c" stroke-width="3" stroke-linejoin="round" stroke-linecap="round">
    <path d="M60 32 C52 18 48 4 52 -8 C60 -4 66 12 68 30 Z" fill="#c4bcae"/>
    <path d="M70 30 C66 14 66 -2 74 -12 C82 -4 82 14 78 32 Z" fill="#eeeae2"/>
  </g>
  <path d="M72 28 C70 14 71 2 75 -6 C79 2 78 16 76 30 Z" fill="#e8a8a8"/>  <g stroke="#1a120c" stroke-width="3" stroke-linejoin="round" stroke-linecap="round">
    <path d="M48 50 C48 34 62 26 78 28 C92 30 100 40 100 50 C100 62 90 70 76 70 C60 70 48 62 48 50 Z" fill="#eeeae2"/>
    <path d="M92 46 C102 44 110 48 111 54 C112 60 104 64 96 63 C90 62 88 56 90 50 Z" fill="#eeeae2"/>
  </g>
  <path d="M106 50 C109 50 111 52 110 54 C108 55 105 54 105 52 Z" fill="#d97a86"/>
  <path d="M104 57 C106 60 108 60 110 58" fill="none" stroke="#1a120c" stroke-width="1.3"/>
  <path d="M104 58 L104 62 L107 62 L107 59" fill="#ffffff" stroke="#1a120c" stroke-width="0.8"/>
  <path d="M100 54 L122 50 M100 56 L123 57 M99 58 L120 63" stroke="#8a8078" stroke-width="0.8"/>
  <path d="M50 54 C54 64 64 70 76 70 C66 66 56 60 54 50 Z" fill="#c4bcae" opacity="0.6"/>
  <path d="M60 34 C68 30 78 30 86 32" fill="none" stroke="#ffffff" stroke-width="2"/>
  <ellipse cx="72" cy="58" rx="5" ry="3" fill="#f0b8b8" opacity="0.5"/>
  <path d="M50 44 C64 40 82 38 98 42" stroke="#25282c" stroke-width="4.5" fill="none"/>
  <path d="M80 38 C86 36 96 37 100 42 C100 48 94 50 88 50 C82 50 78 46 80 38 Z" fill="#3fb8e8" stroke="#1a120c" stroke-width="2"/>
  <path d="M84 40 C88 39 94 40 96 42" stroke="#e6f8ff" stroke-width="1.5" fill="none"/>
  </g>
</svg>
