<svg xmlns="http://www.w3.org/2000/svg" viewBox="0 0 128 160" width="128" height="160" data-anchor="60 152" data-world="0.3">
  <!-- Zając-osiłek: egzoszkielet z ceramiki, pięść-młot z dyszami, rdzeń energii na piersi. -->
  <g transform="translate(0 16)">
  <g transform="translate(-16 -4)">
  <g stroke="#1a120c" stroke-width="2.5" stroke-linejoin="round" stroke-linecap="round">
    <path d="M40 98 C30 94 24 100 26 108 C30 114 40 112 44 106 Z" fill="#ffffff"/>
  </g>
  </g>
  <g stroke="#1a120c" stroke-width="3" stroke-linejoin="round" stroke-linecap="round">
    <path d="M36 100 L30 124 L28 134 L54 134 L54 120 L58 104 Z" fill="#a9b4bc"/>
    <path d="M66 104 L64 124 L62 134 L92 136 L88 122 L86 104 Z" fill="#dfe6ea"/>
    <path d="M26 128 L26 138 L56 138 L56 128 Z M60 130 L60 140 L94 140 L92 130 Z" fill="#3b3f45"/>
  </g>
  <g stroke="#1a120c" stroke-width="3" stroke-linejoin="round" stroke-linecap="round">
    <path d="M22 88 C18 64 38 46 64 44 C90 42 108 60 106 84 C104 104 90 118 66 118 C42 118 26 108 22 88 Z" fill="#dfe6ea"/>
  </g>
  <path d="M26 90 C32 108 48 118 66 118 C48 112 34 102 30 86 Z" fill="#a9b4bc" opacity="0.8"/>
  <path d="M40 72 L98 72 L98 84 L40 84 Z" fill="#c800c8" stroke="#1a120c" stroke-width="2"/>
  <path d="M40 73.5 L98 73.5" stroke="#ff00ff" stroke-width="1.5"/>
  <circle cx="70" cy="96" r="8" fill="#3b3f45" stroke="#1a120c" stroke-width="2"/><circle cx="70" cy="96" r="4.5" fill="#8cdcff"/>
    <circle cx="34" cy="64" r="1.2" fill="#a9b4bc"/>
    <circle cx="50" cy="54" r="1.2" fill="#a9b4bc"/>
    <circle cx="92" cy="58" r="1.2" fill="#a9b4bc"/>
    <circle cx="100" cy="90" r="1.2" fill="#a9b4bc"/>
  <g transform="translate(10 6) scale(0.78)">
  <g stroke="#1a120c" stroke-width="3" stroke-linejoin="round" stroke-linecap="round">
    <path d="M60 32 C52 18 48 4 52 -8 C60 -4 66 12 68 30 Z" fill="#c4bcae"/>
    <path d="M70 30 C66 14 66 -2 74 -12 C82 -4 82 14 78 32 Z" fill="#eeeae2"/>
  </g>
  <path d="M72 28 C70 14 71 2 75 -6 C79 2 78 16 76 30 Z" fill="#e8a8a8"/>  <g stroke="#1a120c" stroke-width="3" stroke-linejoin="round" stroke-linecap="round">
    <path d="M48 50 C48 34 62 26 78 28 C92 30 100 40 100 50 C100 62 90 70 76 70 C60 70 48 62 48 50 Z" fill="#eeeae2"/>
    <path d="M92 46 C102 44 110 48 111 54 C112 60 104 64 96 63 C90 62 88 56 90 50 Z" fill="#eeeae2"/>
  </g>
  <path d="M106 50 C109 50 111 52 110 54 C108 55 105 54 105 52 Z" fill="#d97a86"/>
  <path d="M104 57 C106 60 108 60 110 58" fill="none" stroke="#1a120c" stroke-width="1.3"/>
  <path d="M104 58 L104 62 L107 62 L107 59" fill="#ffffff" stroke="#1a120c" stroke-width="0.8"/>
  <path d="M100 54 L122 50 M100 56 L123 57 M99 58 L120 63" stroke="#8a8078" stroke-width="0.8"/>
  <path d="M50 54 C54 64 64 70 76 70 C66 66 56 60 54 50 Z" fill="#c4bcae" opacity="0.6"/>
  <path d="M60 34 C68 30 78 30 86 32" fill="none" stroke="#ffffff" stroke-width="2"/>
  <ellipse cx="72" cy="58" rx="5" ry="3" fill="#f0b8b8" opacity="0.5"/>
  <path d="M50 44 C64 40 82 38 98 42" stroke="#25282c" stroke-width="4.5" fill="none"/>
  <path d="M80 38 C86 36 96 37 100 42 C100 48 94 50 88 50 C82 50 78 46 80 38 Z" fill="#3fb8e8" stroke="#1a120c" stroke-width="2"/>
  <path d="M84 40 C88 39 94 40 96 42" stroke="#e6f8ff" stroke-width="1.5" fill="none"/>
  </g>
  <g stroke="#1a120c" stroke-width="3" stroke-linejoin="round" stroke-linecap="round">
    <path d="M88 70 C100 74 108 86 106 98 L96 100 C96 90 92 82 84 78 Z" fill="#a9b4bc"/>
    <rect x="94" y="96" width="30" height="26" rx="6" fill="#3b3f45"/>
  </g>
  <path d="M98 104 L120 104 M98 112 L120 112" stroke="#8b939e" stroke-width="2"/>
  <path d="M124 100 L130 98 M124 110 L132 110 M124 118 L130 120" stroke="#8cdcff" stroke-width="2.5" stroke-linecap="round"/>
  </g>
</svg>
