<svg xmlns="http://www.w3.org/2000/svg" viewBox="0 0 128 144" width="128" height="144" data-anchor="64.0 136" data-world="0.21">
  <!-- Wydra-łuczniczka: kusza harpunowa z muszlą, sieć z harpunami na plecach. -->
  <g stroke="#1a120c" stroke-width="2" stroke-linejoin="round" stroke-linecap="round">
    <path d="M36 74 C34 90 40 98 50 98 C54 88 54 78 48 70 Z" fill="#b8a070"/>
  </g>
  <path d="M38 80 L50 78 M38 88 L51 86 M42 72 L42 96 M47 71 L48 97" stroke="#8a7048" stroke-width="1"/>
  <path d="M40 72 L36 62 M45 70 L44 60" stroke="#6b7280" stroke-width="2"/>
  <g stroke="#1a120c" stroke-width="3" stroke-linejoin="round" stroke-linecap="round">
    <path d="M46 100 C30 102 16 112 6 128 C4 134 10 136 16 132 C26 122 36 116 48 112 Z" fill="#54361f"/>
  </g>
  <path d="M40 106 C28 110 18 118 10 128" stroke="#9c6e4c" stroke-width="1.8" fill="none"/>
  <g stroke="#1a120c" stroke-width="3" stroke-linejoin="round" stroke-linecap="round">
    <path d="M58 78 C52 86 54 92 62 94 L68 90 C62 88 62 84 64 80 Z" fill="#54361f"/>
  </g>
  <g stroke="#1a120c" stroke-width="3" stroke-linejoin="round" stroke-linecap="round">
    <path d="M52 108 L48 124 L44 134 L62 134 L62 122 L64 110 Z" fill="#54361f"/>
    <path d="M70 110 L70 124 L68 134 L88 134 L84 122 L82 110 Z" fill="#7a5236"/>
  </g>
  <path d="M44 134 L62 134 M68 134 L88 134" stroke="#1a120c" stroke-width="3"/>
  <path d="M48 131 L50 134 M54 131 L55 134 M74 131 L75 134 M80 131 L81 134" stroke="#54361f" stroke-width="1.2"/>
  <g stroke="#1a120c" stroke-width="3" stroke-linejoin="round" stroke-linecap="round">
    <path d="M42 94 C40 76 52 64 68 64 C84 64 94 76 94 94 C94 110 84 118 68 118 C52 118 42 110 42 94 Z" fill="#7a5236"/>
  </g>
  <path d="M66 70 C80 70 88 80 88 94 C88 106 80 114 70 114 C76 104 76 84 66 70 Z" fill="#d9b48a" opacity="0.85"/>
  <g stroke="#1a120c" stroke-width="3" stroke-linejoin="round" stroke-linecap="round">
    <path d="M54 78 C62 72 80 72 88 78 C92 90 90 104 80 110 L62 110 C52 104 50 90 54 78 Z" fill="#e8cfae"/>
  </g>
  <path d="M71 74 L71 108 M62 76 L66 108 M80 76 L76 108" stroke="#b89878" stroke-width="1.6"/>
  <path d="M50 80 L92 100 L90 108 L48 88 Z" fill="#c800c8" stroke="#1a120c" stroke-width="2"/>
  <path d="M50 80 L92 100" stroke="#ff00ff" stroke-width="1.2"/>
  <circle cx="84" cy="98" r="3" fill="#3fd0c0" stroke="#1a120c" stroke-width="1.2"/>
  <g stroke="#1a120c" stroke-width="3" stroke-linejoin="round" stroke-linecap="round">
    <path d="M78 72 C88 74 92 82 90 90 L82 92 C82 86 80 82 74 80 Z" fill="#7a5236"/>
  </g>
  <g stroke="#1a120c" stroke-width="3" stroke-linejoin="round" stroke-linecap="round">
    <path d="M86 94 L104 56" stroke="#1a120c" stroke-width="6"/>
    <path d="M86 94 L104 56" stroke="#b8a070" stroke-width="3"/>
    <path d="M100 58 L106 46 L112 60 Z" fill="#e8cfae"/>
  </g>
  <path d="M104 56 L126 70" stroke="#25282c" stroke-width="2"/>
  <path d="M120 64 L128 68 L122 74 Z" fill="#6b7280" stroke="#1a120c" stroke-width="1"/>
  <circle cx="106" cy="52" r="3" fill="#3fd0c0"/>
  <g stroke="#1a120c" stroke-width="2.2" stroke-linejoin="round" stroke-linecap="round">
    <circle cx="88" cy="92" r="5.5" fill="#54361f"/>
  </g>
  <g stroke="#1a120c" stroke-width="3" stroke-linejoin="round" stroke-linecap="round">
    <path d="M56 32 C54 26 60 22 64 26 C66 30 64 34 60 35 Z" fill="#54361f"/>
    <path d="M46 52 C46 36 60 28 76 28 C92 28 104 38 104 50 C104 62 92 70 76 70 C60 70 46 64 46 52 Z" fill="#7a5236"/>
    <path d="M84 44 C96 42 110 46 114 52 C116 60 108 66 96 66 C88 66 82 60 82 54 Z" fill="#d9b48a"/>
  </g>
  <path d="M110 48 C114 48 116 50 115 53 C113 55 109 54 108 51 Z" fill="#2a1a12"/>
  <path d="M104 58 C107 61 111 61 114 58" fill="none" stroke="#2a1a12" stroke-width="1.4"/>
  <path d="M100 54 L124 49 M100 57 L125 57 M99 60 L122 64" stroke="#e8dcc8" stroke-width="1"/>
  <ellipse cx="90" cy="45" rx="3.8" ry="4" fill="#2a1a12"/><circle cx="91" cy="43.6" r="1.3" fill="#ffffff"/>
  <path d="M84 39 C88 37 94 37 97 40" stroke="#54361f" stroke-width="2" fill="none"/>
  <path d="M48 56 C52 64 62 70 76 70 C66 66 56 60 52 52 Z" fill="#54361f" opacity="0.7"/>
  <path d="M60 32 C68 29 78 29 86 31" fill="none" stroke="#9c6e4c" stroke-width="2"/>
</svg>
