<svg xmlns="http://www.w3.org/2000/svg" viewBox="0 0 128 144" width="128" height="144" data-anchor="64 108" data-world="0.24">
  <!-- Latająca wydra: jeździec na mewie bojowej, siodło w barwach drużyny. -->
  <g stroke="#1a120c" stroke-width="3" stroke-linejoin="round" stroke-linecap="round">
    <path d="M60 64 C48 46 28 34 4 30 C16 42 28 50 40 56 C30 58 26 62 30 66 C40 66 50 68 56 72 Z" fill="#b8b8b0"/>
  </g>
  <g stroke="#1a120c" stroke-width="3" stroke-linejoin="round" stroke-linecap="round">
    <path d="M36 80 C36 66 52 60 72 62 C92 64 104 72 104 80 C102 92 86 98 66 98 C48 98 36 92 36 80 Z" fill="#f0f0ea"/>
    <path d="M100 70 C104 62 112 60 118 64 C122 68 120 74 114 76 C108 78 104 76 100 74 Z" fill="#f0f0ea"/>
    <path d="M118 66 L128 70 L118 72 Z" fill="#f0b030"/>
    <path d="M38 84 L20 92 L30 94 L26 100 L42 92 Z" fill="#d8d8d0"/>
  </g>
  <circle cx="112" cy="67" r="1.6" fill="#1a120c"/>
  <path d="M58 98 L56 108 M74 98 L76 108" stroke="#f0b030" stroke-width="2.5"/>
  <g stroke="#1a120c" stroke-width="3" stroke-linejoin="round" stroke-linecap="round">
    <path d="M60 76 C62 54 72 30 92 12 C92 20 90 26 88 30 C94 30 94 36 90 40 C86 42 84 48 84 52 C78 58 74 66 72 76 Z" fill="#dcdcd4"/>
  </g>
  <path d="M66 70 C70 50 78 34 90 18" stroke="#9a9a92" stroke-width="1.5" fill="none"/>
  <path d="M88 30 L92 14 L86 28 Z" fill="#3a3a38"/>
  <path d="M54 66 C62 74 78 76 88 70 L88 76 C78 82 62 80 52 72 Z" fill="#c800c8" stroke="#1a120c" stroke-width="2"/>
  <path d="M54 68 C62 75 78 77 88 72" stroke="#ff00ff" stroke-width="1" fill="none"/>
  <g stroke="#1a120c" stroke-width="3" stroke-linejoin="round" stroke-linecap="round">
    <path d="M58 66 C54 54 62 44 72 44 C82 44 86 54 84 66 Z" fill="#7a5236"/>
  </g>
  <g transform="translate(30 6) scale(0.55)">
  <g stroke="#1a120c" stroke-width="3" stroke-linejoin="round" stroke-linecap="round">
    <path d="M56 32 C54 26 60 22 64 26 C66 30 64 34 60 35 Z" fill="#54361f"/>
    <path d="M46 52 C46 36 60 28 76 28 C92 28 104 38 104 50 C104 62 92 70 76 70 C60 70 46 64 46 52 Z" fill="#7a5236"/>
    <path d="M84 44 C96 42 110 46 114 52 C116 60 108 66 96 66 C88 66 82 60 82 54 Z" fill="#d9b48a"/>
  </g>
  <path d="M110 48 C114 48 116 50 115 53 C113 55 109 54 108 51 Z" fill="#2a1a12"/>
  <path d="M104 58 C107 61 111 61 114 58" fill="none" stroke="#2a1a12" stroke-width="1.4"/>
  <path d="M100 54 L124 49 M100 57 L125 57 M99 60 L122 64" stroke="#e8dcc8" stroke-width="1"/>
  <ellipse cx="90" cy="45" rx="3.8" ry="4" fill="#2a1a12"/><circle cx="91" cy="43.6" r="1.3" fill="#ffffff"/>
  <path d="M84 39 C88 37 94 37 97 40" stroke="#54361f" stroke-width="2" fill="none"/>
  <path d="M48 56 C52 64 62 70 76 70 C66 66 56 60 52 52 Z" fill="#54361f" opacity="0.7"/>
  <path d="M60 32 C68 29 78 29 86 31" fill="none" stroke="#9c6e4c" stroke-width="2"/>
  </g>
</svg>
